<?xml version="1.0" encoding="UTF-8"?>
<svg version="1.1" xmlns="http://www.w3.org/2000/svg" width="256" height="256">
<path d="M0 0 C4.01887875 3.4022254 4.01887875 3.4022254 5.46484375 4.9375 C5.46484375 5.5975 5.46484375 6.2575 5.46484375 6.9375 C6.12484375 6.9375 6.78484375 6.9375 7.46484375 6.9375 C28.3000557 29.58446951 34.43287973 57.56531525 33.63964844 87.50390625 C32.9558563 100.93526466 28.47169063 113.02793359 22.46484375 124.9375 C21.94148437 125.98421875 21.418125 127.0309375 20.87890625 128.109375 C7.6738935 152.45813021 -15.58363828 168.9176427 -41.6484375 177.12890625 C-71.58333701 185.5139187 -99.22818212 179.01794466 -125.59765625 164.21875 C-141.85036795 154.430185 -155.99175327 138.48823155 -163.53515625 120.9375 C-163.53515625 119.9475 -163.53515625 118.9575 -163.53515625 117.9375 C-146.04515625 117.9375 -128.55515625 117.9375 -110.53515625 117.9375 C-110.53515625 111.3375 -110.53515625 104.7375 -110.53515625 97.9375 C-129.67515625 97.9375 -148.81515625 97.9375 -168.53515625 97.9375 C-168.53515625 98.5975 -168.53515625 99.2575 -168.53515625 99.9375 C-169.19515625 99.9375 -169.85515625 99.9375 -170.53515625 99.9375 C-172.02232147 94.51086445 -172.94331788 89.42680775 -173.22265625 83.8125 C-173.25955566 83.07241699 -173.29645508 82.33233398 -173.33447266 81.56982422 C-174.47010512 54.46023902 -165.51100269 28.05161041 -147.28515625 7.8125 C-107.0653258 -35.18830403 -44.76735152 -36.42089615 0 0 Z " fill="#FDFDFD" transform="translate(197.53515625,51.0625)"/>
<path d="M0 0 C21.12 0 42.24 0 64 0 C64 5.94 64 11.88 64 18 C50.8 18 37.6 18 24 18 C24 21.3 24 24.6 24 28 C35.22 28 46.44 28 58 28 C58 33.61 58 39.22 58 45 C46.78 45 35.56 45 24 45 C24 48.63 24 52.26 24 56 C37.2 56 50.4 56 64 56 C64 61.94 64 67.88 64 74 C42.88 74 21.76 74 0 74 C0 49.58 0 25.16 0 0 Z " fill="#2C2C2C" transform="translate(120,84)"/>
<path d="M0 0 C10.1475 -0.061875 10.1475 -0.061875 20.5 -0.125 C22.61986328 -0.14320801 24.73972656 -0.16141602 26.92382812 -0.18017578 C28.62629952 -0.18602348 30.32877373 -0.19111838 32.03125 -0.1953125 C32.89717773 -0.20554443 33.76310547 -0.21577637 34.65527344 -0.22631836 C44.85533681 -0.22921282 54.16215783 2.14752087 61.75 9.25 C66.13436895 13.91528961 69 18.52912553 69 25 C60.75 25 52.5 25 44 25 C43.34 23.68 42.68 22.36 42 21 C36.12813312 16.82788406 31.88940952 17.65745079 24 17 C24 29.54 24 42.08 24 55 C31.92 54.505 31.92 54.505 40 54 C40 60.27 40 66.54 40 73 C26.8 73 13.6 73 0 73 C0 48.91 0 24.82 0 0 Z " fill="#2B2B2B" transform="translate(72,52)"/>
<path d="M0 0 C1.32 0 2.64 0 4 0 C3.37723992 3.48745647 2.48440549 6.68127048 1.25 10 C0.89292969 10.96292969 0.53585938 11.92585937 0.16796875 12.91796875 C-1.43355287 17.14405756 -3.06656474 21.35768518 -4.703125 25.5703125 C-5.62039812 27.9961131 -6.5070801 30.41897651 -7.359375 32.8671875 C-7.58181885 33.50487061 -7.8042627 34.14255371 -8.03344727 34.79956055 C-8.65637709 36.59766294 -9.27174882 38.39837846 -9.88671875 40.19921875 C-11 43 -11 43 -13 45 C-13.99 45 -14.98 45 -16 45 C-15.42654119 39.41107415 -13.95524681 34.71384759 -11.875 29.51171875 C-11.56804199 28.72730911 -11.26108398 27.94289948 -10.94482422 27.13471985 C-9.97023374 24.64948625 -8.98518944 22.16854827 -8 19.6875 C-7.3378721 18.00221604 -6.67640708 16.31667148 -6.015625 14.63085938 C-1.24382445 2.48764891 -1.24382445 2.48764891 0 0 Z " fill="#3D3D3D" transform="translate(134,170)"/>
<path d="M0 0 C4.90739985 0.45114933 7.97845069 2.94253719 11.6875 5.9375 C12.26822266 6.39318359 12.84894531 6.84886719 13.44726562 7.31835938 C15.73731065 9.12656833 17.93534613 10.93534613 20 13 C19.76791497 15.40412434 19.3128953 16.65659104 17.68066406 18.44799805 C17.13120117 18.88152588 16.58173828 19.31505371 16.015625 19.76171875 C15.40976563 20.24060547 14.80390625 20.71949219 14.1796875 21.21289062 C13.22449219 21.94282227 13.22449219 21.94282227 12.25 22.6875 C11.62867188 23.18572266 11.00734375 23.68394531 10.3671875 24.19726562 C6.9859135 26.82595648 4.40571081 28.63846266 0 29 C0.24772016 25.67126036 1.18598668 24.82644848 3.6875 22.4921875 C4.78402209 21.61020234 5.88852132 20.73806063 7 19.875 C11.05681227 16.92582247 11.05681227 16.92582247 14 13 C13.44828125 12.75121094 12.8965625 12.50242188 12.328125 12.24609375 C9.56101754 10.76504127 7.21829933 9.00033149 4.75 7.0625 C3.85796875 6.37285156 2.9659375 5.68320313 2.046875 4.97265625 C1.37140625 4.32167969 0.6959375 3.67070312 0 3 C0 2.01 0 1.02 0 0 Z " fill="#383838" transform="translate(137,178)"/>
<path d="M0 0 C0.99 0.33 1.98 0.66 3 1 C2.18122516 5.76217153 -0.83482584 7.54753443 -4.5625 10.25 C-5.17802734 10.70890625 -5.79355469 11.1678125 -6.42773438 11.640625 C-7.94494792 12.76971415 -9.47159183 13.88611143 -11 15 C-7.19162607 18.9368981 -3.22324226 22.15714016 1.20703125 25.3515625 C1.79871094 25.89554688 2.39039062 26.43953125 3 27 C3 27.99 3 28.98 3 30 C-2.20413582 29.57294305 -5.32384895 26.83575183 -9.25 23.6875 C-9.88679688 23.20087891 -10.52359375 22.71425781 -11.1796875 22.21289062 C-11.78554687 21.73400391 -12.39140625 21.25511719 -13.015625 20.76171875 C-13.56508789 20.32819092 -14.11455078 19.89466309 -14.68066406 19.44799805 C-16.27296439 17.70041602 -16.60489842 16.30322064 -17 14 C-12.80723708 10.24136512 -8.55310294 6.55689288 -4.1875 3 C-3.45917969 2.401875 -2.73085937 1.80375 -1.98046875 1.1875 C-1.00013672 0.5996875 -1.00013672 0.5996875 0 0 Z " fill="#383838" transform="translate(116,177)"/>
</svg>
